<?xml version="1.0" encoding="utf-8"?>
<!-- Generator: Adobe Illustrator 21.0.2, SVG Export Plug-In . SVG Version: 6.00 Build 0)  -->
<svg version="1.1" id="Layer_1" xmlns="http://www.w3.org/2000/svg" xmlns:xlink="http://www.w3.org/1999/xlink" x="0px" y="0px"
	 viewBox="0 0 288.6 187.2" style="enable-background:new 0 0 288.6 187.2;" xml:space="preserve">
<style type="text/css">
	.st0{fill:#00C18B;}
	.st1{clip-path:url(#SVGID_2_);fill:#00C18B;}
</style>
<g>
	<path class="st0" d="M287.7,113.9l-18.4-33.6c-5.2-9.5-15.2-15.4-26-15.4h-38.6V7c0-3.9-3.1-7-7-7H7C3.1,0,0,3.1,0,7v155.6
		c0,3.9,3.1,7,7,7h20.9c3,10.1,12.4,17.5,23.5,17.5s20.5-7.4,23.5-17.5h122.8h14.9c3,10.1,12.4,17.5,23.5,17.5s20.5-7.4,23.5-17.5
		h22c3.9,0,7-3.1,7-7v-45.4C288.6,116.1,288.3,114.9,287.7,113.9L287.7,113.9z M14,14h176.7v141.6H74.9c-3-10.1-12.4-17.5-23.5-17.5
		s-20.5,7.4-23.5,17.5H14C14,155.6,14,14,14,14z M61.9,162.6c0,5.8-4.7,10.5-10.5,10.5s-10.5-4.7-10.5-10.5s4.7-10.5,10.5-10.5
		S61.9,156.8,61.9,162.6z M246.6,162.6c0,5.8-4.7,10.5-10.5,10.5s-10.5-4.7-10.5-10.5s4.7-10.5,10.5-10.5S246.6,156.8,246.6,162.6z
		 M274.6,155.6h-15c-3-10.1-12.4-17.5-23.5-17.5s-20.5,7.4-23.5,17.5h-7.9V78.9h38.6c5.7,0,11,3.1,13.7,8.1l17.6,32.1L274.6,155.6
		L274.6,155.6z"/>
</g>
<g>
	<defs>
		<rect id="SVGID_1_" x="24.8" y="56" width="157.2" height="52.1"/>
	</defs>
	<clipPath id="SVGID_2_">
		<use xlink:href="#SVGID_1_"  style="overflow:visible;"/>
	</clipPath>
	<path class="st1" d="M151.7,108H182v-6.6h-22.8V85.2h21.3v-6.7h-21.3V62.6h22.1V56h-29.5V108z M111.3,108h30.3v-6.6h-22.8V85.2
		h21.3v-6.7h-21.3V62.6h22.1V56h-29.5V108z M80.6,63.2c1.6,0.5,2.8,1.5,3.7,2.8c0.9,1.3,1.3,2.8,1.3,4.5c0,1.7-0.4,3.2-1.2,4.5
		c-0.8,1.3-1.9,2.3-3.3,2.9c-1.4,0.6-4,1-7.8,1h-2.8V62.3h2.2C76.4,62.3,79,62.6,80.6,63.2 M70.5,108.1V85.4h1.9
		c2.4,0,4.2,0.3,5.2,0.8c1,0.6,2.2,1.5,3.5,2.7c1.3,1.3,2.7,3,4.2,5.1l2.5,4.1l2.3,3.8l1.5,2.1c0.2,0.3,0.4,0.5,0.4,0.6l2.3,3.4h8.9
		l-2.8-3.7c-1.1-1.5-2.5-3.7-4.4-6.7c-2.9-4.7-5.1-8-6.7-9.9c-1.6-1.9-3.2-3.4-4.9-4.5c2.8-1.1,5-2.7,6.5-5c1.5-2.2,2.3-4.8,2.3-7.9
		c0-4.4-1.6-8-4.6-10.6c-3.1-2.6-7.3-3.9-12.6-3.9H63.1v52.1H70.5z M24.8,108.1h7.5V83.8h20.3v-6.6H32.2V62.6h20.3V56H24.8V108.1z"
		/>
</g>
</svg>
